<mxfile host="app.diagrams.net" modified="2021-05-19T19:09:27.191Z" agent="5.0 (Windows NT 10.0; Win64; x64) AppleWebKit/537.36 (KHTML, like Gecko) Chrome/90.0.4430.212 Safari/537.36" etag="q6O_LUNCHrnnoiWG2NJV" version="14.6.13" type="github">
  <diagram id="9wIN_9EUKG97BZwH4m8H" name="Page-1">
    <mxGraphModel dx="1927" dy="1572" grid="1" gridSize="10" guides="1" tooltips="1" connect="1" arrows="1" fold="1" page="1" pageScale="1" pageWidth="827" pageHeight="1169" math="0" shadow="0">
      <root>
        <mxCell id="0" />
        <mxCell id="1" parent="0" />
        <mxCell id="N0lbeCtPLwYTpKfvcPKP-1" value="Usuario" style="rounded=0;whiteSpace=wrap;html=1;" parent="1" vertex="1">
          <mxGeometry x="190" y="85" width="110" height="50" as="geometry" />
        </mxCell>
        <mxCell id="Lwj6-TGVAKtRz28M91Cg-1" value="Medico" style="rounded=0;whiteSpace=wrap;html=1;" parent="1" vertex="1">
          <mxGeometry x="100" y="200" width="110" height="50" as="geometry" />
        </mxCell>
        <mxCell id="Lwj6-TGVAKtRz28M91Cg-2" value="Paciente" style="rounded=0;whiteSpace=wrap;html=1;" parent="1" vertex="1">
          <mxGeometry x="290" y="200" width="110" height="50" as="geometry" />
        </mxCell>
        <mxCell id="Lwj6-TGVAKtRz28M91Cg-4" value="" style="endArrow=none;html=1;entryX=0.5;entryY=1;entryDx=0;entryDy=0;" parent="1" target="N0lbeCtPLwYTpKfvcPKP-1" edge="1">
          <mxGeometry width="50" height="50" relative="1" as="geometry">
            <mxPoint x="245" y="160" as="sourcePoint" />
            <mxPoint x="250" y="140" as="targetPoint" />
          </mxGeometry>
        </mxCell>
        <mxCell id="Lwj6-TGVAKtRz28M91Cg-5" value="" style="endArrow=none;html=1;" parent="1" edge="1">
          <mxGeometry width="50" height="50" relative="1" as="geometry">
            <mxPoint x="160" y="160" as="sourcePoint" />
            <mxPoint x="350" y="160" as="targetPoint" />
          </mxGeometry>
        </mxCell>
        <mxCell id="Lwj6-TGVAKtRz28M91Cg-7" value="" style="endArrow=none;html=1;" parent="1" edge="1">
          <mxGeometry width="50" height="50" relative="1" as="geometry">
            <mxPoint x="160" y="200" as="sourcePoint" />
            <mxPoint x="160" y="160" as="targetPoint" />
          </mxGeometry>
        </mxCell>
        <mxCell id="Lwj6-TGVAKtRz28M91Cg-8" value="" style="endArrow=none;startArrow=none;html=1;endFill=0;startFill=0;" parent="1" edge="1">
          <mxGeometry width="50" height="50" relative="1" as="geometry">
            <mxPoint x="350" y="202" as="sourcePoint" />
            <mxPoint x="350" y="160" as="targetPoint" />
          </mxGeometry>
        </mxCell>
        <mxCell id="Lwj6-TGVAKtRz28M91Cg-10" value="Cita" style="rounded=0;whiteSpace=wrap;html=1;" parent="1" vertex="1">
          <mxGeometry x="200" y="350" width="110" height="50" as="geometry" />
        </mxCell>
        <mxCell id="Lwj6-TGVAKtRz28M91Cg-13" style="edgeStyle=orthogonalEdgeStyle;rounded=0;orthogonalLoop=1;jettySize=auto;html=1;entryX=0;entryY=0.5;entryDx=0;entryDy=0;startArrow=none;startFill=0;endArrow=none;endFill=0;" parent="1" source="Lwj6-TGVAKtRz28M91Cg-12" edge="1">
          <mxGeometry relative="1" as="geometry">
            <mxPoint x="470" y="375" as="targetPoint" />
          </mxGeometry>
        </mxCell>
        <mxCell id="Lwj6-TGVAKtRz28M91Cg-14" style="edgeStyle=orthogonalEdgeStyle;rounded=0;orthogonalLoop=1;jettySize=auto;html=1;entryX=1;entryY=0.5;entryDx=0;entryDy=0;startArrow=none;startFill=0;endArrow=none;endFill=0;" parent="1" source="Lwj6-TGVAKtRz28M91Cg-12" target="Lwj6-TGVAKtRz28M91Cg-10" edge="1">
          <mxGeometry relative="1" as="geometry" />
        </mxCell>
        <mxCell id="Lwj6-TGVAKtRz28M91Cg-12" value="" style="rhombus;whiteSpace=wrap;html=1;" parent="1" vertex="1">
          <mxGeometry x="374" y="355" width="40" height="40" as="geometry" />
        </mxCell>
        <mxCell id="Lwj6-TGVAKtRz28M91Cg-16" style="edgeStyle=orthogonalEdgeStyle;rounded=0;orthogonalLoop=1;jettySize=auto;html=1;entryX=0.855;entryY=0;entryDx=0;entryDy=0;entryPerimeter=0;startArrow=none;startFill=0;endArrow=none;endFill=0;" parent="1" source="Lwj6-TGVAKtRz28M91Cg-15" target="Lwj6-TGVAKtRz28M91Cg-10" edge="1">
          <mxGeometry relative="1" as="geometry" />
        </mxCell>
        <mxCell id="Lwj6-TGVAKtRz28M91Cg-17" style="edgeStyle=orthogonalEdgeStyle;rounded=0;orthogonalLoop=1;jettySize=auto;html=1;entryX=0.5;entryY=1;entryDx=0;entryDy=0;startArrow=none;startFill=0;endArrow=none;endFill=0;" parent="1" source="Lwj6-TGVAKtRz28M91Cg-15" target="Lwj6-TGVAKtRz28M91Cg-2" edge="1">
          <mxGeometry relative="1" as="geometry" />
        </mxCell>
        <mxCell id="Lwj6-TGVAKtRz28M91Cg-15" value="" style="rhombus;whiteSpace=wrap;html=1;" parent="1" vertex="1">
          <mxGeometry x="325" y="280" width="40" height="40" as="geometry" />
        </mxCell>
        <mxCell id="Lwj6-TGVAKtRz28M91Cg-20" style="edgeStyle=orthogonalEdgeStyle;rounded=0;orthogonalLoop=1;jettySize=auto;html=1;startArrow=none;startFill=0;endArrow=none;endFill=0;" parent="1" source="Lwj6-TGVAKtRz28M91Cg-18" edge="1">
          <mxGeometry relative="1" as="geometry">
            <mxPoint x="222" y="350" as="targetPoint" />
          </mxGeometry>
        </mxCell>
        <mxCell id="Lwj6-TGVAKtRz28M91Cg-21" style="edgeStyle=orthogonalEdgeStyle;rounded=0;orthogonalLoop=1;jettySize=auto;html=1;entryX=0.5;entryY=1;entryDx=0;entryDy=0;startArrow=none;startFill=0;endArrow=none;endFill=0;" parent="1" source="Lwj6-TGVAKtRz28M91Cg-18" target="Lwj6-TGVAKtRz28M91Cg-1" edge="1">
          <mxGeometry relative="1" as="geometry" />
        </mxCell>
        <mxCell id="Lwj6-TGVAKtRz28M91Cg-18" value="" style="rhombus;whiteSpace=wrap;html=1;" parent="1" vertex="1">
          <mxGeometry x="135" y="280" width="40" height="40" as="geometry" />
        </mxCell>
        <mxCell id="Lwj6-TGVAKtRz28M91Cg-22" value="" style="endArrow=none;html=1;" parent="1" edge="1">
          <mxGeometry width="50" height="50" relative="1" as="geometry">
            <mxPoint x="410" y="360" as="sourcePoint" />
            <mxPoint x="470" y="360" as="targetPoint" />
            <Array as="points">
              <mxPoint x="440" y="360" />
            </Array>
          </mxGeometry>
        </mxCell>
        <mxCell id="Lwj6-TGVAKtRz28M91Cg-23" value="" style="endArrow=none;html=1;" parent="1" edge="1">
          <mxGeometry width="50" height="50" relative="1" as="geometry">
            <mxPoint x="410" y="390" as="sourcePoint" />
            <mxPoint x="470" y="390" as="targetPoint" />
            <Array as="points">
              <mxPoint x="440" y="390" />
            </Array>
          </mxGeometry>
        </mxCell>
        <mxCell id="Lwj6-TGVAKtRz28M91Cg-24" value="" style="verticalLabelPosition=bottom;verticalAlign=top;html=1;shape=mxgraph.basic.frame;dx=10;" parent="1" vertex="1">
          <mxGeometry x="470" y="340" width="110" height="60" as="geometry" />
        </mxCell>
        <mxCell id="Lwj6-TGVAKtRz28M91Cg-28" value="CitaHistoria" style="text;html=1;align=center;verticalAlign=middle;resizable=0;points=[];autosize=1;strokeColor=none;" parent="1" vertex="1">
          <mxGeometry x="490" y="360" width="80" height="20" as="geometry" />
        </mxCell>
        <mxCell id="Lwj6-TGVAKtRz28M91Cg-29" value="TipoCita" style="rounded=0;whiteSpace=wrap;html=1;" parent="1" vertex="1">
          <mxGeometry x="200" y="550" width="110" height="50" as="geometry" />
        </mxCell>
        <mxCell id="Lwj6-TGVAKtRz28M91Cg-32" style="edgeStyle=orthogonalEdgeStyle;rounded=0;orthogonalLoop=1;jettySize=auto;html=1;entryX=0.409;entryY=1;entryDx=0;entryDy=0;entryPerimeter=0;startArrow=none;startFill=0;endArrow=none;endFill=0;" parent="1" source="Lwj6-TGVAKtRz28M91Cg-30" target="Lwj6-TGVAKtRz28M91Cg-10" edge="1">
          <mxGeometry relative="1" as="geometry" />
        </mxCell>
        <mxCell id="Lwj6-TGVAKtRz28M91Cg-39" style="edgeStyle=orthogonalEdgeStyle;rounded=0;orthogonalLoop=1;jettySize=auto;html=1;entryX=0.4;entryY=0;entryDx=0;entryDy=0;startArrow=none;startFill=0;endArrow=none;endFill=0;entryPerimeter=0;" parent="1" source="Lwj6-TGVAKtRz28M91Cg-30" target="Lwj6-TGVAKtRz28M91Cg-29" edge="1">
          <mxGeometry relative="1" as="geometry">
            <Array as="points">
              <mxPoint x="245" y="520" />
              <mxPoint x="244" y="520" />
            </Array>
          </mxGeometry>
        </mxCell>
        <mxCell id="Lwj6-TGVAKtRz28M91Cg-30" value="" style="rhombus;whiteSpace=wrap;html=1;" parent="1" vertex="1">
          <mxGeometry x="225" y="450" width="40" height="40" as="geometry" />
        </mxCell>
        <mxCell id="Lwj6-TGVAKtRz28M91Cg-55" style="edgeStyle=orthogonalEdgeStyle;rounded=0;orthogonalLoop=1;jettySize=auto;html=1;entryX=0.155;entryY=-0.04;entryDx=0;entryDy=0;entryPerimeter=0;startArrow=none;startFill=0;endArrow=none;endFill=0;" parent="1" source="Lwj6-TGVAKtRz28M91Cg-33" target="Lwj6-TGVAKtRz28M91Cg-29" edge="1">
          <mxGeometry relative="1" as="geometry" />
        </mxCell>
        <mxCell id="Lwj6-TGVAKtRz28M91Cg-33" value="descripcion" style="ellipse;whiteSpace=wrap;html=1;" parent="1" vertex="1">
          <mxGeometry x="110" y="480" width="65" height="40" as="geometry" />
        </mxCell>
        <mxCell id="Lwj6-TGVAKtRz28M91Cg-36" style="edgeStyle=orthogonalEdgeStyle;rounded=0;orthogonalLoop=1;jettySize=auto;html=1;entryX=0.909;entryY=0.017;entryDx=0;entryDy=0;entryPerimeter=0;startArrow=none;startFill=0;endArrow=none;endFill=0;" parent="1" source="Lwj6-TGVAKtRz28M91Cg-35" target="Lwj6-TGVAKtRz28M91Cg-24" edge="1">
          <mxGeometry relative="1" as="geometry" />
        </mxCell>
        <mxCell id="Lwj6-TGVAKtRz28M91Cg-35" value="observacion" style="ellipse;whiteSpace=wrap;html=1;" parent="1" vertex="1">
          <mxGeometry x="540" y="260" width="70" height="40" as="geometry" />
        </mxCell>
        <mxCell id="Lwj6-TGVAKtRz28M91Cg-40" value="Especialidad" style="rounded=0;whiteSpace=wrap;html=1;" parent="1" vertex="1">
          <mxGeometry x="-80" y="345" width="110" height="50" as="geometry" />
        </mxCell>
        <mxCell id="Lwj6-TGVAKtRz28M91Cg-42" style="edgeStyle=orthogonalEdgeStyle;rounded=0;orthogonalLoop=1;jettySize=auto;html=1;startArrow=none;startFill=0;endArrow=none;endFill=0;entryX=0;entryY=0.5;entryDx=0;entryDy=0;" parent="1" source="Lwj6-TGVAKtRz28M91Cg-41" target="Lwj6-TGVAKtRz28M91Cg-1" edge="1">
          <mxGeometry relative="1" as="geometry">
            <mxPoint x="60" y="220" as="targetPoint" />
            <Array as="points">
              <mxPoint x="60" y="225" />
            </Array>
          </mxGeometry>
        </mxCell>
        <mxCell id="Lwj6-TGVAKtRz28M91Cg-78" style="edgeStyle=orthogonalEdgeStyle;rounded=0;orthogonalLoop=1;jettySize=auto;html=1;entryX=0.386;entryY=0;entryDx=0;entryDy=0;entryPerimeter=0;startArrow=none;startFill=0;endArrow=none;endFill=0;" parent="1" source="Lwj6-TGVAKtRz28M91Cg-41" target="Lwj6-TGVAKtRz28M91Cg-40" edge="1">
          <mxGeometry relative="1" as="geometry" />
        </mxCell>
        <mxCell id="Lwj6-TGVAKtRz28M91Cg-41" value="" style="rhombus;whiteSpace=wrap;html=1;" parent="1" vertex="1">
          <mxGeometry x="-57.5" y="250" width="40" height="40" as="geometry" />
        </mxCell>
        <mxCell id="Lwj6-TGVAKtRz28M91Cg-45" value="Cuota" style="rounded=0;whiteSpace=wrap;html=1;" parent="1" vertex="1">
          <mxGeometry x="640" y="170" width="110" height="50" as="geometry" />
        </mxCell>
        <mxCell id="Lwj6-TGVAKtRz28M91Cg-47" style="edgeStyle=orthogonalEdgeStyle;rounded=0;orthogonalLoop=1;jettySize=auto;html=1;entryX=1;entryY=0.75;entryDx=0;entryDy=0;startArrow=none;startFill=0;endArrow=none;endFill=0;exitX=0.5;exitY=1;exitDx=0;exitDy=0;" parent="1" source="Lwj6-TGVAKtRz28M91Cg-46" target="Lwj6-TGVAKtRz28M91Cg-2" edge="1">
          <mxGeometry relative="1" as="geometry" />
        </mxCell>
        <mxCell id="Lwj6-TGVAKtRz28M91Cg-48" style="edgeStyle=orthogonalEdgeStyle;rounded=0;orthogonalLoop=1;jettySize=auto;html=1;entryX=0.5;entryY=1;entryDx=0;entryDy=0;startArrow=none;startFill=0;endArrow=none;endFill=0;" parent="1" source="Lwj6-TGVAKtRz28M91Cg-46" target="Lwj6-TGVAKtRz28M91Cg-45" edge="1">
          <mxGeometry relative="1" as="geometry" />
        </mxCell>
        <mxCell id="Lwj6-TGVAKtRz28M91Cg-46" value="" style="rhombus;whiteSpace=wrap;html=1;" parent="1" vertex="1">
          <mxGeometry x="490" y="180" width="40" height="40" as="geometry" />
        </mxCell>
        <mxCell id="Lwj6-TGVAKtRz28M91Cg-49" value="Agenda" style="rounded=0;whiteSpace=wrap;html=1;" parent="1" vertex="1">
          <mxGeometry x="-172.5" y="127.5" width="110" height="50" as="geometry" />
        </mxCell>
        <mxCell id="Lwj6-TGVAKtRz28M91Cg-52" style="edgeStyle=orthogonalEdgeStyle;rounded=0;orthogonalLoop=1;jettySize=auto;html=1;entryX=0.25;entryY=0;entryDx=0;entryDy=0;startArrow=none;startFill=0;endArrow=none;endFill=0;" parent="1" source="Lwj6-TGVAKtRz28M91Cg-50" target="Lwj6-TGVAKtRz28M91Cg-1" edge="1">
          <mxGeometry relative="1" as="geometry" />
        </mxCell>
        <mxCell id="Lwj6-TGVAKtRz28M91Cg-53" style="edgeStyle=orthogonalEdgeStyle;rounded=0;orthogonalLoop=1;jettySize=auto;html=1;entryX=1;entryY=0.75;entryDx=0;entryDy=0;startArrow=none;startFill=0;endArrow=none;endFill=0;" parent="1" source="Lwj6-TGVAKtRz28M91Cg-50" target="Lwj6-TGVAKtRz28M91Cg-49" edge="1">
          <mxGeometry relative="1" as="geometry" />
        </mxCell>
        <mxCell id="Lwj6-TGVAKtRz28M91Cg-50" value="" style="rhombus;whiteSpace=wrap;html=1;" parent="1" vertex="1">
          <mxGeometry x="40" y="150" width="40" height="40" as="geometry" />
        </mxCell>
        <mxCell id="Lwj6-TGVAKtRz28M91Cg-54" value="Estado" style="rounded=0;whiteSpace=wrap;html=1;" parent="1" vertex="1">
          <mxGeometry x="475" y="550" width="110" height="50" as="geometry" />
        </mxCell>
        <mxCell id="Lwj6-TGVAKtRz28M91Cg-57" style="edgeStyle=orthogonalEdgeStyle;rounded=0;orthogonalLoop=1;jettySize=auto;html=1;startArrow=none;startFill=0;endArrow=none;endFill=0;entryX=0.5;entryY=1;entryDx=0;entryDy=0;entryPerimeter=0;" parent="1" source="Lwj6-TGVAKtRz28M91Cg-56" target="Lwj6-TGVAKtRz28M91Cg-24" edge="1">
          <mxGeometry relative="1" as="geometry">
            <mxPoint x="520" y="410" as="targetPoint" />
            <Array as="points">
              <mxPoint x="520" y="400" />
            </Array>
          </mxGeometry>
        </mxCell>
        <mxCell id="Lwj6-TGVAKtRz28M91Cg-58" style="edgeStyle=orthogonalEdgeStyle;rounded=0;orthogonalLoop=1;jettySize=auto;html=1;startArrow=none;startFill=0;endArrow=none;endFill=0;" parent="1" source="Lwj6-TGVAKtRz28M91Cg-56" edge="1">
          <mxGeometry relative="1" as="geometry">
            <mxPoint x="520" y="550" as="targetPoint" />
          </mxGeometry>
        </mxCell>
        <mxCell id="Lwj6-TGVAKtRz28M91Cg-56" value="" style="rhombus;whiteSpace=wrap;html=1;" parent="1" vertex="1">
          <mxGeometry x="500" y="450" width="40" height="40" as="geometry" />
        </mxCell>
        <mxCell id="Lwj6-TGVAKtRz28M91Cg-60" style="edgeStyle=orthogonalEdgeStyle;rounded=0;orthogonalLoop=1;jettySize=auto;html=1;entryX=0.873;entryY=0.02;entryDx=0;entryDy=0;entryPerimeter=0;startArrow=none;startFill=0;endArrow=none;endFill=0;" parent="1" source="Lwj6-TGVAKtRz28M91Cg-59" target="Lwj6-TGVAKtRz28M91Cg-54" edge="1">
          <mxGeometry relative="1" as="geometry" />
        </mxCell>
        <mxCell id="Lwj6-TGVAKtRz28M91Cg-59" value="descripcion" style="ellipse;whiteSpace=wrap;html=1;" parent="1" vertex="1">
          <mxGeometry x="600" y="470" width="65" height="40" as="geometry" />
        </mxCell>
        <mxCell id="Lwj6-TGVAKtRz28M91Cg-63" style="edgeStyle=orthogonalEdgeStyle;rounded=0;orthogonalLoop=1;jettySize=auto;html=1;entryX=0;entryY=0;entryDx=27.5;entryDy=0;entryPerimeter=0;startArrow=none;startFill=0;endArrow=none;endFill=0;" parent="1" source="Lwj6-TGVAKtRz28M91Cg-61" target="Lwj6-TGVAKtRz28M91Cg-24" edge="1">
          <mxGeometry relative="1" as="geometry" />
        </mxCell>
        <mxCell id="Lwj6-TGVAKtRz28M91Cg-61" value="adjunto" style="ellipse;whiteSpace=wrap;html=1;" parent="1" vertex="1">
          <mxGeometry x="440" y="270" width="70" height="40" as="geometry" />
        </mxCell>
        <mxCell id="Lwj6-TGVAKtRz28M91Cg-66" style="edgeStyle=orthogonalEdgeStyle;rounded=0;orthogonalLoop=1;jettySize=auto;html=1;entryX=0.25;entryY=1;entryDx=0;entryDy=0;startArrow=none;startFill=0;endArrow=none;endFill=0;" parent="1" source="Lwj6-TGVAKtRz28M91Cg-64" target="Lwj6-TGVAKtRz28M91Cg-40" edge="1">
          <mxGeometry relative="1" as="geometry" />
        </mxCell>
        <mxCell id="Lwj6-TGVAKtRz28M91Cg-64" value="descripcion" style="ellipse;whiteSpace=wrap;html=1;" parent="1" vertex="1">
          <mxGeometry x="-57.5" y="470" width="65" height="40" as="geometry" />
        </mxCell>
        <mxCell id="Lwj6-TGVAKtRz28M91Cg-73" style="edgeStyle=orthogonalEdgeStyle;rounded=0;orthogonalLoop=1;jettySize=auto;html=1;entryX=0.25;entryY=0;entryDx=0;entryDy=0;startArrow=none;startFill=0;endArrow=none;endFill=0;" parent="1" source="Lwj6-TGVAKtRz28M91Cg-67" target="Lwj6-TGVAKtRz28M91Cg-49" edge="1">
          <mxGeometry relative="1" as="geometry" />
        </mxCell>
        <mxCell id="Lwj6-TGVAKtRz28M91Cg-67" value="activo" style="ellipse;whiteSpace=wrap;html=1;" parent="1" vertex="1">
          <mxGeometry x="-320" y="97.5" width="70" height="40" as="geometry" />
        </mxCell>
        <mxCell id="Lwj6-TGVAKtRz28M91Cg-70" style="edgeStyle=orthogonalEdgeStyle;rounded=0;orthogonalLoop=1;jettySize=auto;html=1;entryX=0.5;entryY=0;entryDx=0;entryDy=0;startArrow=none;startFill=0;endArrow=none;endFill=0;" parent="1" source="Lwj6-TGVAKtRz28M91Cg-69" target="Lwj6-TGVAKtRz28M91Cg-49" edge="1">
          <mxGeometry relative="1" as="geometry" />
        </mxCell>
        <mxCell id="Lwj6-TGVAKtRz28M91Cg-69" value="hora_hasta" style="ellipse;whiteSpace=wrap;html=1;" parent="1" vertex="1">
          <mxGeometry x="-292.5" y="37.5" width="70" height="40" as="geometry" />
        </mxCell>
        <mxCell id="Lwj6-TGVAKtRz28M91Cg-115" style="edgeStyle=orthogonalEdgeStyle;rounded=0;orthogonalLoop=1;jettySize=auto;html=1;entryX=0.75;entryY=0;entryDx=0;entryDy=0;startArrow=none;startFill=0;endArrow=none;endFill=0;exitX=1;exitY=0.5;exitDx=0;exitDy=0;" parent="1" source="Lwj6-TGVAKtRz28M91Cg-71" target="Lwj6-TGVAKtRz28M91Cg-49" edge="1">
          <mxGeometry relative="1" as="geometry" />
        </mxCell>
        <mxCell id="Lwj6-TGVAKtRz28M91Cg-71" value="hora_desde" style="ellipse;whiteSpace=wrap;html=1;" parent="1" vertex="1">
          <mxGeometry x="-222.5" y="-22.5" width="70" height="40" as="geometry" />
        </mxCell>
        <mxCell id="Lwj6-TGVAKtRz28M91Cg-80" style="edgeStyle=orthogonalEdgeStyle;rounded=0;orthogonalLoop=1;jettySize=auto;html=1;entryX=0;entryY=0.25;entryDx=0;entryDy=0;startArrow=none;startFill=0;endArrow=none;endFill=0;" parent="1" source="Lwj6-TGVAKtRz28M91Cg-79" target="Lwj6-TGVAKtRz28M91Cg-10" edge="1">
          <mxGeometry relative="1" as="geometry" />
        </mxCell>
        <mxCell id="Lwj6-TGVAKtRz28M91Cg-81" style="edgeStyle=orthogonalEdgeStyle;rounded=0;orthogonalLoop=1;jettySize=auto;html=1;entryX=1;entryY=0.5;entryDx=0;entryDy=0;startArrow=none;startFill=0;endArrow=none;endFill=0;" parent="1" source="Lwj6-TGVAKtRz28M91Cg-79" target="Lwj6-TGVAKtRz28M91Cg-40" edge="1">
          <mxGeometry relative="1" as="geometry" />
        </mxCell>
        <mxCell id="Lwj6-TGVAKtRz28M91Cg-79" value="" style="rhombus;whiteSpace=wrap;html=1;" parent="1" vertex="1">
          <mxGeometry x="95" y="345" width="40" height="40" as="geometry" />
        </mxCell>
        <mxCell id="Lwj6-TGVAKtRz28M91Cg-82" value="N" style="text;html=1;strokeColor=none;fillColor=none;align=center;verticalAlign=middle;whiteSpace=wrap;rounded=0;" parent="1" vertex="1">
          <mxGeometry x="60" y="230" width="40" height="20" as="geometry" />
        </mxCell>
        <mxCell id="Lwj6-TGVAKtRz28M91Cg-83" value="N" style="text;html=1;strokeColor=none;fillColor=none;align=center;verticalAlign=middle;whiteSpace=wrap;rounded=0;" parent="1" vertex="1">
          <mxGeometry x="-40" y="325" width="40" height="20" as="geometry" />
        </mxCell>
        <mxCell id="Lwj6-TGVAKtRz28M91Cg-84" value="N" style="text;html=1;strokeColor=none;fillColor=none;align=center;verticalAlign=middle;whiteSpace=wrap;rounded=0;" parent="1" vertex="1">
          <mxGeometry x="165" y="365" width="40" height="20" as="geometry" />
        </mxCell>
        <mxCell id="Lwj6-TGVAKtRz28M91Cg-85" value="1" style="text;html=1;strokeColor=none;fillColor=none;align=center;verticalAlign=middle;whiteSpace=wrap;rounded=0;" parent="1" vertex="1">
          <mxGeometry x="30" y="375" width="40" height="20" as="geometry" />
        </mxCell>
        <mxCell id="Lwj6-TGVAKtRz28M91Cg-86" value="1" style="text;html=1;strokeColor=none;fillColor=none;align=center;verticalAlign=middle;whiteSpace=wrap;rounded=0;" parent="1" vertex="1">
          <mxGeometry x="240" y="530" width="40" height="20" as="geometry" />
        </mxCell>
        <mxCell id="Lwj6-TGVAKtRz28M91Cg-87" value="N" style="text;html=1;strokeColor=none;fillColor=none;align=center;verticalAlign=middle;whiteSpace=wrap;rounded=0;" parent="1" vertex="1">
          <mxGeometry x="240" y="400" width="40" height="20" as="geometry" />
        </mxCell>
        <mxCell id="Lwj6-TGVAKtRz28M91Cg-88" value="1" style="text;html=1;strokeColor=none;fillColor=none;align=center;verticalAlign=middle;whiteSpace=wrap;rounded=0;" parent="1" vertex="1">
          <mxGeometry x="520" y="530" width="40" height="20" as="geometry" />
        </mxCell>
        <mxCell id="Lwj6-TGVAKtRz28M91Cg-90" style="edgeStyle=orthogonalEdgeStyle;rounded=0;orthogonalLoop=1;jettySize=auto;html=1;entryX=1;entryY=0.5;entryDx=0;entryDy=0;entryPerimeter=0;startArrow=none;startFill=0;endArrow=none;endFill=0;" parent="1" source="Lwj6-TGVAKtRz28M91Cg-89" target="Lwj6-TGVAKtRz28M91Cg-24" edge="1">
          <mxGeometry relative="1" as="geometry" />
        </mxCell>
        <mxCell id="Lwj6-TGVAKtRz28M91Cg-89" value="&lt;u&gt;cita+id&lt;/u&gt;" style="ellipse;whiteSpace=wrap;html=1;" parent="1" vertex="1">
          <mxGeometry x="620" y="320" width="70" height="40" as="geometry" />
        </mxCell>
        <mxCell id="Lwj6-TGVAKtRz28M91Cg-91" value="1" style="text;html=1;strokeColor=none;fillColor=none;align=center;verticalAlign=middle;whiteSpace=wrap;rounded=0;" parent="1" vertex="1">
          <mxGeometry x="150" y="250" width="40" height="20" as="geometry" />
        </mxCell>
        <mxCell id="Lwj6-TGVAKtRz28M91Cg-93" value="N" style="text;html=1;strokeColor=none;fillColor=none;align=center;verticalAlign=middle;whiteSpace=wrap;rounded=0;" parent="1" vertex="1">
          <mxGeometry x="210" y="330" width="40" height="20" as="geometry" />
        </mxCell>
        <mxCell id="Lwj6-TGVAKtRz28M91Cg-94" value="1" style="text;html=1;strokeColor=none;fillColor=none;align=center;verticalAlign=middle;whiteSpace=wrap;rounded=0;" parent="1" vertex="1">
          <mxGeometry x="340" y="250" width="40" height="20" as="geometry" />
        </mxCell>
        <mxCell id="Lwj6-TGVAKtRz28M91Cg-95" value="N" style="text;html=1;strokeColor=none;fillColor=none;align=center;verticalAlign=middle;whiteSpace=wrap;rounded=0;" parent="1" vertex="1">
          <mxGeometry x="290" y="330" width="40" height="20" as="geometry" />
        </mxCell>
        <mxCell id="Lwj6-TGVAKtRz28M91Cg-96" value="1..7" style="text;html=1;strokeColor=none;fillColor=none;align=center;verticalAlign=middle;whiteSpace=wrap;rounded=0;" parent="1" vertex="1">
          <mxGeometry x="-62.5" y="170" width="40" height="20" as="geometry" />
        </mxCell>
        <mxCell id="Lwj6-TGVAKtRz28M91Cg-97" value="1" style="text;html=1;strokeColor=none;fillColor=none;align=center;verticalAlign=middle;whiteSpace=wrap;rounded=0;" parent="1" vertex="1">
          <mxGeometry x="100" y="150" width="40" height="20" as="geometry" />
        </mxCell>
        <mxCell id="Lwj6-TGVAKtRz28M91Cg-98" value="1" style="text;html=1;strokeColor=none;fillColor=none;align=center;verticalAlign=middle;whiteSpace=wrap;rounded=0;" parent="1" vertex="1">
          <mxGeometry x="394" y="215" width="40" height="20" as="geometry" />
        </mxCell>
        <mxCell id="Lwj6-TGVAKtRz28M91Cg-100" value="N" style="text;html=1;strokeColor=none;fillColor=none;align=center;verticalAlign=middle;whiteSpace=wrap;rounded=0;" parent="1" vertex="1">
          <mxGeometry x="520" y="400" width="40" height="20" as="geometry" />
        </mxCell>
        <mxCell id="Lwj6-TGVAKtRz28M91Cg-101" value="N" style="text;html=1;strokeColor=none;fillColor=none;align=center;verticalAlign=middle;whiteSpace=wrap;rounded=0;" parent="1" vertex="1">
          <mxGeometry x="600" y="215" width="40" height="20" as="geometry" />
        </mxCell>
        <mxCell id="Lwj6-TGVAKtRz28M91Cg-103" style="edgeStyle=orthogonalEdgeStyle;rounded=0;orthogonalLoop=1;jettySize=auto;html=1;entryX=1;entryY=0.75;entryDx=0;entryDy=0;startArrow=none;startFill=0;endArrow=none;endFill=0;" parent="1" source="Lwj6-TGVAKtRz28M91Cg-102" target="Lwj6-TGVAKtRz28M91Cg-10" edge="1">
          <mxGeometry relative="1" as="geometry" />
        </mxCell>
        <mxCell id="Lwj6-TGVAKtRz28M91Cg-102" value="fecha" style="ellipse;whiteSpace=wrap;html=1;" parent="1" vertex="1">
          <mxGeometry x="300" y="430" width="70" height="40" as="geometry" />
        </mxCell>
        <mxCell id="Lwj6-TGVAKtRz28M91Cg-105" style="edgeStyle=orthogonalEdgeStyle;rounded=0;orthogonalLoop=1;jettySize=auto;html=1;entryX=0.25;entryY=1;entryDx=0;entryDy=0;startArrow=none;startFill=0;endArrow=none;endFill=0;" parent="1" source="Lwj6-TGVAKtRz28M91Cg-104" target="Lwj6-TGVAKtRz28M91Cg-10" edge="1">
          <mxGeometry relative="1" as="geometry" />
        </mxCell>
        <mxCell id="Lwj6-TGVAKtRz28M91Cg-104" value="hora" style="ellipse;whiteSpace=wrap;html=1;" parent="1" vertex="1">
          <mxGeometry x="120" y="420" width="70" height="40" as="geometry" />
        </mxCell>
        <mxCell id="Lwj6-TGVAKtRz28M91Cg-107" style="edgeStyle=orthogonalEdgeStyle;rounded=0;orthogonalLoop=1;jettySize=auto;html=1;entryX=0;entryY=0.25;entryDx=0;entryDy=0;startArrow=none;startFill=0;endArrow=none;endFill=0;exitX=1;exitY=0.5;exitDx=0;exitDy=0;" parent="1" source="Lwj6-TGVAKtRz28M91Cg-106" target="Lwj6-TGVAKtRz28M91Cg-49" edge="1">
          <mxGeometry relative="1" as="geometry">
            <mxPoint x="-202.5" y="207.50000000000023" as="sourcePoint" />
          </mxGeometry>
        </mxCell>
        <mxCell id="Lwj6-TGVAKtRz28M91Cg-106" value="nro_dia" style="ellipse;whiteSpace=wrap;html=1;" parent="1" vertex="1">
          <mxGeometry x="-312.5" y="192.5" width="70" height="40" as="geometry" />
        </mxCell>
        <mxCell id="Lwj6-TGVAKtRz28M91Cg-112" style="edgeStyle=orthogonalEdgeStyle;rounded=0;orthogonalLoop=1;jettySize=auto;html=1;entryX=0.018;entryY=0.64;entryDx=0;entryDy=0;entryPerimeter=0;startArrow=none;startFill=0;endArrow=none;endFill=0;" parent="1" source="Lwj6-TGVAKtRz28M91Cg-108" target="Lwj6-TGVAKtRz28M91Cg-45" edge="1">
          <mxGeometry relative="1" as="geometry" />
        </mxCell>
        <mxCell id="Lwj6-TGVAKtRz28M91Cg-108" value="estado" style="ellipse;whiteSpace=wrap;html=1;" parent="1" vertex="1">
          <mxGeometry x="570" y="140" width="70" height="40" as="geometry" />
        </mxCell>
        <mxCell id="Lwj6-TGVAKtRz28M91Cg-114" style="edgeStyle=orthogonalEdgeStyle;rounded=0;orthogonalLoop=1;jettySize=auto;html=1;entryX=0.75;entryY=0;entryDx=0;entryDy=0;startArrow=none;startFill=0;endArrow=none;endFill=0;" parent="1" source="Lwj6-TGVAKtRz28M91Cg-113" target="Lwj6-TGVAKtRz28M91Cg-45" edge="1">
          <mxGeometry relative="1" as="geometry" />
        </mxCell>
        <mxCell id="Lwj6-TGVAKtRz28M91Cg-113" value="nro_cuota" style="ellipse;whiteSpace=wrap;html=1;" parent="1" vertex="1">
          <mxGeometry x="690" y="110" width="70" height="40" as="geometry" />
        </mxCell>
        <mxCell id="Ud294Bfl2Y2m7Z7d1oVh-5" style="edgeStyle=orthogonalEdgeStyle;rounded=0;orthogonalLoop=1;jettySize=auto;html=1;entryX=1;entryY=0.5;entryDx=0;entryDy=0;startArrow=none;startFill=0;endArrow=none;endFill=0;" parent="1" source="Ud294Bfl2Y2m7Z7d1oVh-1" target="N0lbeCtPLwYTpKfvcPKP-1" edge="1">
          <mxGeometry relative="1" as="geometry" />
        </mxCell>
        <mxCell id="Ud294Bfl2Y2m7Z7d1oVh-6" style="edgeStyle=orthogonalEdgeStyle;rounded=0;orthogonalLoop=1;jettySize=auto;html=1;entryX=0;entryY=0.5;entryDx=0;entryDy=0;endArrow=none;endFill=0;" parent="1" source="Ud294Bfl2Y2m7Z7d1oVh-1" target="Ud294Bfl2Y2m7Z7d1oVh-4" edge="1">
          <mxGeometry relative="1" as="geometry" />
        </mxCell>
        <mxCell id="Ud294Bfl2Y2m7Z7d1oVh-1" value="" style="rhombus;whiteSpace=wrap;html=1;" parent="1" vertex="1">
          <mxGeometry x="394" y="85" width="40" height="40" as="geometry" />
        </mxCell>
        <mxCell id="Ud294Bfl2Y2m7Z7d1oVh-4" value="Persona" style="rounded=0;whiteSpace=wrap;html=1;" parent="1" vertex="1">
          <mxGeometry x="500" y="80" width="110" height="50" as="geometry" />
        </mxCell>
        <mxCell id="_uGO4ZYUsfNh4w6qkYpD-13" style="edgeStyle=orthogonalEdgeStyle;rounded=0;orthogonalLoop=1;jettySize=auto;html=1;exitX=0.5;exitY=1;exitDx=0;exitDy=0;entryX=0.75;entryY=0;entryDx=0;entryDy=0;" edge="1" parent="1" source="_uGO4ZYUsfNh4w6qkYpD-1" target="Ud294Bfl2Y2m7Z7d1oVh-4">
          <mxGeometry relative="1" as="geometry" />
        </mxCell>
        <mxCell id="_uGO4ZYUsfNh4w6qkYpD-1" value="apellido" style="ellipse;whiteSpace=wrap;html=1;" vertex="1" parent="1">
          <mxGeometry x="550" y="-210" width="70" height="40" as="geometry" />
        </mxCell>
        <mxCell id="_uGO4ZYUsfNh4w6qkYpD-10" style="edgeStyle=orthogonalEdgeStyle;rounded=0;orthogonalLoop=1;jettySize=auto;html=1;exitX=1;exitY=0.5;exitDx=0;exitDy=0;entryX=0.25;entryY=0;entryDx=0;entryDy=0;" edge="1" parent="1" source="_uGO4ZYUsfNh4w6qkYpD-2" target="Ud294Bfl2Y2m7Z7d1oVh-4">
          <mxGeometry relative="1" as="geometry" />
        </mxCell>
        <mxCell id="_uGO4ZYUsfNh4w6qkYpD-2" value="fechaNacimiento" style="ellipse;whiteSpace=wrap;html=1;" vertex="1" parent="1">
          <mxGeometry x="355" y="-150" width="115" height="40" as="geometry" />
        </mxCell>
        <mxCell id="_uGO4ZYUsfNh4w6qkYpD-16" style="edgeStyle=orthogonalEdgeStyle;rounded=0;orthogonalLoop=1;jettySize=auto;html=1;exitX=0;exitY=1;exitDx=0;exitDy=0;entryX=1;entryY=0.25;entryDx=0;entryDy=0;" edge="1" parent="1" source="_uGO4ZYUsfNh4w6qkYpD-3" target="Ud294Bfl2Y2m7Z7d1oVh-4">
          <mxGeometry relative="1" as="geometry" />
        </mxCell>
        <mxCell id="_uGO4ZYUsfNh4w6qkYpD-3" value="matricula" style="ellipse;whiteSpace=wrap;html=1;" vertex="1" parent="1">
          <mxGeometry x="680" y="-80" width="70" height="40" as="geometry" />
        </mxCell>
        <mxCell id="_uGO4ZYUsfNh4w6qkYpD-11" style="edgeStyle=orthogonalEdgeStyle;rounded=0;orthogonalLoop=1;jettySize=auto;html=1;exitX=1;exitY=1;exitDx=0;exitDy=0;entryX=0.5;entryY=0;entryDx=0;entryDy=0;" edge="1" parent="1" source="_uGO4ZYUsfNh4w6qkYpD-4" target="Ud294Bfl2Y2m7Z7d1oVh-4">
          <mxGeometry relative="1" as="geometry" />
        </mxCell>
        <mxCell id="_uGO4ZYUsfNh4w6qkYpD-4" value="nombre" style="ellipse;whiteSpace=wrap;html=1;" vertex="1" parent="1">
          <mxGeometry x="475" y="-200" width="70" height="40" as="geometry" />
        </mxCell>
        <mxCell id="_uGO4ZYUsfNh4w6qkYpD-9" style="edgeStyle=orthogonalEdgeStyle;rounded=0;orthogonalLoop=1;jettySize=auto;html=1;exitX=1;exitY=0.5;exitDx=0;exitDy=0;entryX=0;entryY=0;entryDx=0;entryDy=0;" edge="1" parent="1" source="_uGO4ZYUsfNh4w6qkYpD-5" target="Ud294Bfl2Y2m7Z7d1oVh-4">
          <mxGeometry relative="1" as="geometry" />
        </mxCell>
        <mxCell id="_uGO4ZYUsfNh4w6qkYpD-5" value="numeroAfiliado" style="ellipse;whiteSpace=wrap;html=1;" vertex="1" parent="1">
          <mxGeometry x="380" y="-90" width="100" height="40" as="geometry" />
        </mxCell>
        <mxCell id="_uGO4ZYUsfNh4w6qkYpD-17" style="edgeStyle=orthogonalEdgeStyle;rounded=0;orthogonalLoop=1;jettySize=auto;html=1;exitX=0;exitY=0.5;exitDx=0;exitDy=0;entryX=1;entryY=0.75;entryDx=0;entryDy=0;" edge="1" parent="1" source="_uGO4ZYUsfNh4w6qkYpD-6" target="Ud294Bfl2Y2m7Z7d1oVh-4">
          <mxGeometry relative="1" as="geometry" />
        </mxCell>
        <mxCell id="_uGO4ZYUsfNh4w6qkYpD-6" value="numeroDocumento" style="ellipse;whiteSpace=wrap;html=1;" vertex="1" parent="1">
          <mxGeometry x="712.5" y="-30" width="125" height="40" as="geometry" />
        </mxCell>
        <mxCell id="_uGO4ZYUsfNh4w6qkYpD-14" style="edgeStyle=orthogonalEdgeStyle;rounded=0;orthogonalLoop=1;jettySize=auto;html=1;exitX=0.5;exitY=1;exitDx=0;exitDy=0;entryX=1;entryY=0;entryDx=0;entryDy=0;" edge="1" parent="1" source="_uGO4ZYUsfNh4w6qkYpD-7" target="Ud294Bfl2Y2m7Z7d1oVh-4">
          <mxGeometry relative="1" as="geometry" />
        </mxCell>
        <mxCell id="_uGO4ZYUsfNh4w6qkYpD-7" value="sexo" style="ellipse;whiteSpace=wrap;html=1;" vertex="1" parent="1">
          <mxGeometry x="595" y="-120" width="70" height="40" as="geometry" />
        </mxCell>
        <mxCell id="_uGO4ZYUsfNh4w6qkYpD-19" style="edgeStyle=orthogonalEdgeStyle;rounded=0;orthogonalLoop=1;jettySize=auto;html=1;exitX=0;exitY=0.5;exitDx=0;exitDy=0;entryX=1;entryY=0.5;entryDx=0;entryDy=0;" edge="1" parent="1" source="_uGO4ZYUsfNh4w6qkYpD-8" target="Ud294Bfl2Y2m7Z7d1oVh-4">
          <mxGeometry relative="1" as="geometry" />
        </mxCell>
        <mxCell id="_uGO4ZYUsfNh4w6qkYpD-8" value="tipoDocumento" style="ellipse;whiteSpace=wrap;html=1;" vertex="1" parent="1">
          <mxGeometry x="740" y="40" width="110" height="30" as="geometry" />
        </mxCell>
        <mxCell id="_uGO4ZYUsfNh4w6qkYpD-21" style="edgeStyle=orthogonalEdgeStyle;rounded=0;orthogonalLoop=1;jettySize=auto;html=1;exitX=1;exitY=1;exitDx=0;exitDy=0;entryX=0;entryY=0.25;entryDx=0;entryDy=0;" edge="1" parent="1" source="_uGO4ZYUsfNh4w6qkYpD-20" target="Ud294Bfl2Y2m7Z7d1oVh-4">
          <mxGeometry relative="1" as="geometry">
            <Array as="points">
              <mxPoint x="490" y="4" />
              <mxPoint x="490" y="45" />
              <mxPoint x="480" y="45" />
              <mxPoint x="480" y="92" />
            </Array>
          </mxGeometry>
        </mxCell>
        <mxCell id="_uGO4ZYUsfNh4w6qkYpD-20" value="&lt;u&gt;id_persona&lt;/u&gt;" style="ellipse;whiteSpace=wrap;html=1;" vertex="1" parent="1">
          <mxGeometry x="380" y="-30" width="100" height="40" as="geometry" />
        </mxCell>
        <mxCell id="_uGO4ZYUsfNh4w6qkYpD-22" value="1" style="text;html=1;align=center;verticalAlign=middle;resizable=0;points=[];autosize=1;strokeColor=none;" vertex="1" parent="1">
          <mxGeometry x="300" y="110" width="20" height="20" as="geometry" />
        </mxCell>
        <mxCell id="_uGO4ZYUsfNh4w6qkYpD-23" value="1" style="text;html=1;align=center;verticalAlign=middle;resizable=0;points=[];autosize=1;strokeColor=none;" vertex="1" parent="1">
          <mxGeometry x="475" y="110" width="20" height="20" as="geometry" />
        </mxCell>
        <mxCell id="_uGO4ZYUsfNh4w6qkYpD-25" style="edgeStyle=orthogonalEdgeStyle;rounded=0;orthogonalLoop=1;jettySize=auto;html=1;exitX=0.5;exitY=1;exitDx=0;exitDy=0;entryX=0;entryY=0;entryDx=0;entryDy=0;" edge="1" parent="1" source="_uGO4ZYUsfNh4w6qkYpD-24" target="N0lbeCtPLwYTpKfvcPKP-1">
          <mxGeometry relative="1" as="geometry" />
        </mxCell>
        <mxCell id="_uGO4ZYUsfNh4w6qkYpD-24" value="&lt;u&gt;id_usuario&lt;/u&gt;" style="ellipse;whiteSpace=wrap;html=1;" vertex="1" parent="1">
          <mxGeometry x="120" y="-90" width="100" height="40" as="geometry" />
        </mxCell>
        <mxCell id="_uGO4ZYUsfNh4w6qkYpD-27" style="edgeStyle=orthogonalEdgeStyle;rounded=0;orthogonalLoop=1;jettySize=auto;html=1;exitX=0.5;exitY=1;exitDx=0;exitDy=0;entryX=0.75;entryY=0;entryDx=0;entryDy=0;" edge="1" parent="1" source="_uGO4ZYUsfNh4w6qkYpD-26" target="N0lbeCtPLwYTpKfvcPKP-1">
          <mxGeometry relative="1" as="geometry" />
        </mxCell>
        <mxCell id="_uGO4ZYUsfNh4w6qkYpD-26" value="email" style="ellipse;whiteSpace=wrap;html=1;" vertex="1" parent="1">
          <mxGeometry x="250" y="-220" width="100" height="40" as="geometry" />
        </mxCell>
        <mxCell id="_uGO4ZYUsfNh4w6qkYpD-29" style="edgeStyle=orthogonalEdgeStyle;rounded=0;orthogonalLoop=1;jettySize=auto;html=1;exitX=0.5;exitY=1;exitDx=0;exitDy=0;entryX=1;entryY=0;entryDx=0;entryDy=0;" edge="1" parent="1" source="_uGO4ZYUsfNh4w6qkYpD-28" target="N0lbeCtPLwYTpKfvcPKP-1">
          <mxGeometry relative="1" as="geometry" />
        </mxCell>
        <mxCell id="_uGO4ZYUsfNh4w6qkYpD-28" value="password" style="ellipse;whiteSpace=wrap;html=1;" vertex="1" parent="1">
          <mxGeometry x="280" y="-25" width="80" height="30" as="geometry" />
        </mxCell>
        <mxCell id="_uGO4ZYUsfNh4w6qkYpD-31" style="edgeStyle=orthogonalEdgeStyle;rounded=0;orthogonalLoop=1;jettySize=auto;html=1;exitX=1;exitY=0.5;exitDx=0;exitDy=0;entryX=0.25;entryY=0;entryDx=0;entryDy=0;" edge="1" parent="1" source="_uGO4ZYUsfNh4w6qkYpD-30" target="N0lbeCtPLwYTpKfvcPKP-1">
          <mxGeometry relative="1" as="geometry" />
        </mxCell>
        <mxCell id="_uGO4ZYUsfNh4w6qkYpD-30" value="rol" style="ellipse;whiteSpace=wrap;html=1;" vertex="1" parent="1">
          <mxGeometry x="140" y="-190" width="100" height="40" as="geometry" />
        </mxCell>
        <mxCell id="_uGO4ZYUsfNh4w6qkYpD-33" value="ubicacion" style="rounded=0;whiteSpace=wrap;html=1;" vertex="1" parent="1">
          <mxGeometry x="-15" y="85" width="110" height="50" as="geometry" />
        </mxCell>
        <mxCell id="_uGO4ZYUsfNh4w6qkYpD-35" style="edgeStyle=orthogonalEdgeStyle;rounded=0;orthogonalLoop=1;jettySize=auto;html=1;exitX=0.5;exitY=1;exitDx=0;exitDy=0;entryX=0;entryY=0;entryDx=0;entryDy=0;" edge="1" parent="1" source="_uGO4ZYUsfNh4w6qkYpD-34" target="_uGO4ZYUsfNh4w6qkYpD-33">
          <mxGeometry relative="1" as="geometry" />
        </mxCell>
        <mxCell id="_uGO4ZYUsfNh4w6qkYpD-34" value="id_ubicacion" style="ellipse;whiteSpace=wrap;html=1;" vertex="1" parent="1">
          <mxGeometry x="-110" y="-120" width="75" height="30" as="geometry" />
        </mxCell>
        <mxCell id="_uGO4ZYUsfNh4w6qkYpD-37" style="edgeStyle=orthogonalEdgeStyle;rounded=0;orthogonalLoop=1;jettySize=auto;html=1;exitX=0.5;exitY=1;exitDx=0;exitDy=0;entryX=0.25;entryY=0;entryDx=0;entryDy=0;" edge="1" parent="1" source="_uGO4ZYUsfNh4w6qkYpD-36" target="_uGO4ZYUsfNh4w6qkYpD-33">
          <mxGeometry relative="1" as="geometry" />
        </mxCell>
        <mxCell id="_uGO4ZYUsfNh4w6qkYpD-36" value="lat_actual" style="ellipse;whiteSpace=wrap;html=1;" vertex="1" parent="1">
          <mxGeometry x="-52.5" y="-70" width="70" height="35" as="geometry" />
        </mxCell>
        <mxCell id="_uGO4ZYUsfNh4w6qkYpD-39" style="edgeStyle=orthogonalEdgeStyle;rounded=0;orthogonalLoop=1;jettySize=auto;html=1;exitX=0.5;exitY=1;exitDx=0;exitDy=0;entryX=0.5;entryY=0;entryDx=0;entryDy=0;" edge="1" parent="1" source="_uGO4ZYUsfNh4w6qkYpD-38" target="_uGO4ZYUsfNh4w6qkYpD-33">
          <mxGeometry relative="1" as="geometry" />
        </mxCell>
        <mxCell id="_uGO4ZYUsfNh4w6qkYpD-38" value="long_actual" style="ellipse;whiteSpace=wrap;html=1;" vertex="1" parent="1">
          <mxGeometry x="-15" y="-120" width="70" height="35" as="geometry" />
        </mxCell>
        <mxCell id="_uGO4ZYUsfNh4w6qkYpD-40" style="edgeStyle=orthogonalEdgeStyle;rounded=0;orthogonalLoop=1;jettySize=auto;html=1;entryX=1;entryY=0.5;entryDx=0;entryDy=0;startArrow=none;startFill=0;endArrow=none;endFill=0;exitX=0;exitY=0.5;exitDx=0;exitDy=0;" edge="1" parent="1" source="N0lbeCtPLwYTpKfvcPKP-1" target="_uGO4ZYUsfNh4w6qkYpD-33">
          <mxGeometry relative="1" as="geometry">
            <mxPoint x="404" y="115" as="sourcePoint" />
            <mxPoint x="310" y="115" as="targetPoint" />
          </mxGeometry>
        </mxCell>
        <mxCell id="_uGO4ZYUsfNh4w6qkYpD-41" value="" style="rhombus;whiteSpace=wrap;html=1;" vertex="1" parent="1">
          <mxGeometry x="129.5" y="97.5" width="26" height="25" as="geometry" />
        </mxCell>
        <mxCell id="_uGO4ZYUsfNh4w6qkYpD-42" value="1" style="text;html=1;align=center;verticalAlign=middle;resizable=0;points=[];autosize=1;strokeColor=none;" vertex="1" parent="1">
          <mxGeometry x="95" y="90" width="20" height="20" as="geometry" />
        </mxCell>
        <mxCell id="_uGO4ZYUsfNh4w6qkYpD-43" value="n" style="text;html=1;align=center;verticalAlign=middle;resizable=0;points=[];autosize=1;strokeColor=none;" vertex="1" parent="1">
          <mxGeometry x="170" y="90" width="20" height="20" as="geometry" />
        </mxCell>
      </root>
    </mxGraphModel>
  </diagram>
</mxfile>
